PathFileType	4	(X/Y/Z)	Walk1.trc
DataRate	CameraRate	NumFrames	NumMarkers	Units	OrigDataRate	OrigDataStartFrame	OrigNumFrames
200.000000	200.000000	6	61	mm	200.000000	364	465
Frame#	Times		LFHD		RFHD		CLAV		STRN		LASI		RASI		RACR1		RUA1		RWRR		RWRU		RCAR		LACR1		LUA1		LFA1		LWRU		LCAR		RTH3		RTH2		RTB1		RTB4		LTH1		LTH3		LTH2		LTH4		LLFC		LMFC		LTB1		LTB3		LTB2		LTB4		LLMAL		LMMAL		LMT1		LMT5		LToe		LBHD		RBHD		RTB3		RFA1		RMFC		RMT5		RLFC		RToe		LElbowM		RTH4		RTB2		RLMAL		RMMAL		RMT1		LWRR		RElbow		LPSI		RPSI		RTH1		C7		LCAL		T10		RBack		RElbowM		RCAL		LElbow
			X1	Y1	Z1	X2	Y2	Z2	X3	Y3	Z3	X4	Y4	Z4	X5	Y5	Z5	X6	Y6	Z6	X7	Y7	Z7	X8	Y8	Z8	X9	Y9	Z9	X10	Y10	Z10	X11	Y11	Z11	X12	Y12	Z12	X13	Y13	Z13	X14	Y14	Z14	X15	Y15	Z15	X16	Y16	Z16	X17	Y17	Z17	X18	Y18	Z18	X19	Y19	Z19	X20	Y20	Z20	X21	Y21	Z21	X22	Y22	Z22	X23	Y23	Z23	X24	Y24	Z24	X25	Y25	Z25	X26	Y26	Z26	X27	Y27	Z27	X28	Y28	Z28	X29	Y29	Z29	X30	Y30	Z30	X31	Y31	Z31	X32	Y32	Z32	X33	Y33	Z33	X34	Y34	Z34	X35	Y35	Z35	X36	Y36	Z36	X37	Y37	Z37	X38	Y38	Z38	X39	Y39	Z39	X40	Y40	Z40	X41	Y41	Z41	X42	Y42	Z42	X43	Y43	Z43	X44	Y44	Z44	X45	Y45	Z45	X46	Y46	Z46	X47	Y47	Z47	X48	Y48	Z48	X49	Y49	Z49	X50	Y50	Z50	X51	Y51	Z51	X52	Y52	Z52	X53	Y53	Z53	X54	Y54	Z54	X55	Y55	Z55	X56	Y56	Z56	X57	Y57	Z57	X58	Y58	Z58	X59	Y59	Z59	X60	Y60	Z60	X61	Y61	Z61

364	1.82	960.45	1542.3	-73.24	964.42	1550.4	25.835	874.4	1299.7	-7.1552	893.15	1166.7	-1.6024	859.47	888.64	-115.44	845.24	915.39	133	801.99	1345.6	157.79	807.05	1177.9	215.37	964	810.3	248.03	1004.3	844.17	204.34	1032.6	779.18	247.86	790.16	1354	-156.74	733.15	1187.2	-210.18	637	911.36	-232.6	647.07	784.49	-226.9	585.68	736.26	-247.89	709	587.58	156.73	785.56	658.2	154.45	652.95	336.28	90.139	622.65	255.4	76.919	842.87	728.11	-185.52	901.47	569.12	-153.52	923.17	672.7	-151	871.76	647.69	-171.3	948.01	438.9	-132.87	934.76	422.15	-0.80159	1016.1	365.96	-63.513	1044.9	198.24	-50.732	1011	274.25	-116.1	1027.9	280.68	-57.545	1021.3	74.74	-87.076	1032.4	99.042	-9.4205	1166.6	82.6	-27.438	1136.2	58.276	-98.955	1217.4	92.406	-58.7	803.7	1523.1	-89.112	813.63	1539.2	55.548	590.82	176.72	59.961	910.03	916.09	257.1	623.67	458.93	-2.5732	596.26	24.282	77.424	665.25	449.6	120.47	692.39	23.033	30.342	669.91	1041.3	-209.97	732.83	665.69	178.61	574.32	268.22	113.05	505.17	87.682	57.617	534.46	106.99	-17.155	638.82	33.588	-4.2572	583.33	807.64	-211.09	812.43	1011.2	252.99	680.93	951	-55.754	677.3	950.09	46.101	758.21	745.39	202.91	766.88	1408.6	-8.3403	979.79	30.379	-40.68	684.78	1196.5	-0.030973	684.26	1284.9	69.628	774.36	1001.8	184.65	454.46	75.147	9.9248	666.88	1028.2	-136.51
365	1.825	967.9	1541.6	-73.204	972.02	1549.6	25.86	882.28	1298.9	-6.955	901.21	1165.9	-1.4564	868.37	887.86	-115.16	852.76	914.34	133.14	809.68	1344.7	157.93	815.05	1177	215.48	974.02	810.76	247.56	1014	845.17	204.02	1042.9	780.36	247.43	797.96	1353.1	-156.58	739.51	1187	-209.9	641.02	911.89	-231.73	650.14	784.89	-226.55	587.9	737.21	-246.68	714.56	587.48	156.78	791.56	657.63	154.86	656.53	336.25	90.355	625.34	255.74	77.196	851.52	727.07	-185.72	909.24	567.72	-153.69	931.27	671.23	-150.52	879.96	646.47	-171.55	955.11	437.28	-133.05	940.34	420.06	-1.1953	1025.5	366.09	-62.73	1058.2	198.92	-49.827	1022.7	274.18	-115.31	1039.3	281.03	-56.719	1037.6	74.982	-86.212	1047.9	99.551	-8.5347	1182.7	85.837	-26.053	1153	60.498	-97.554	1233.4	96.626	-56.954	811.15	1522.1	-88.829	821.28	1538.4	55.808	592.67	177.36	60.267	919.1	916.03	256.9	629.21	459.22	-2.7924	596.34	24.343	77.382	670.05	449.77	120.49	692.44	23.041	30.32	675.23	1041.4	-209.07	738.83	665.45	178.75	577.06	269.13	113.15	506	89.307	57.821	535.73	108.14	-16.897	638.97	33.554	-4.2246	586.84	808.56	-209.74	820.72	1010.4	253.06	689.36	949.98	-56.622	685.28	949.16	45.387	764.59	745.04	203.02	774.63	1407.6	-8.1516	996.87	29.452	-39.636	692.79	1195.5	-0.063679	692.13	1283.8	69.712	782.52	1000.8	184.74	455.19	77.35	10.24	672.95	1028.2	-135.59
366	1.83	975.37	1540.8	-73.164	979.63	1548.9	25.891	890.17	1298	-6.7936	909.3	1165.1	-1.3375	877.31	887.11	-114.89	860.36	913.28	133.26	817.38	1343.8	158.04	823.03	1176.1	215.55	983.85	811.15	247.14	1023.6	846.05	203.78	1053.1	781.41	247.1	805.75	1352.2	-156.45	745.93	1186.7	-209.66	645.24	912.4	-230.95	653.45	785.28	-226.27	590.42	738.09	-245.5	720.3	587.36	156.84	797.74	657.04	155.23	660.27	336.2	90.6	628.16	256.09	77.51	860.28	726.09	-185.9	917.11	566.41	-153.77	939.46	669.85	-149.99	888.27	645.33	-171.75	962.32	435.76	-133.07	946.01	418.14	-1.4499	1034.6	366.12	-61.9	1070.8	199.51	-48.857	1033.9	274.06	-114.46	1050.2	281.3	-55.837	1052.9	75.235	-85.263	1062.5	100.04	-7.5688	1197.7	88.738	-24.599	1168.8	62.486	-96.084	1248.3	100.42	-55.152	818.62	1521.2	-88.569	828.94	1537.5	56.048	594.61	178.03	60.623	928.04	915.9	256.73	634.91	459.43	-2.9562	596.44	24.402	77.366	675.07	449.91	120.55	692.48	23.055	30.291	680.69	1041.5	-208.25	745	665.2	178.87	579.96	270.06	113.3	506.92	90.999	58.102	537.06	109.35	-16.571	639.11	33.522	-4.1833	590.6	809.42	-208.49	828.95	1009.5	253.1	697.85	948.99	-57.472	693.34	948.24	44.696	771.14	744.69	203.09	782.39	1406.6	-8.0048	1012.9	28.693	-38.541	700.84	1194.4	-0.11493	700.03	1282.7	69.756	790.66	999.92	184.77	455.98	79.658	10.65	679.11	1028.1	-134.76
367	1.835	982.86	1540	-73.12	987.23	1548.2	25.928	898.08	1297.2	-6.673	917.44	1164.3	-1.2461	886.28	886.38	-114.64	868.05	912.23	133.37	825.08	1342.9	158.11	831	1175.2	215.59	993.49	811.43	246.76	1033.1	846.81	203.63	1063	782.31	246.86	813.54	1351.3	-156.35	752.42	1186.5	-209.47	649.67	912.89	-230.28	657.03	785.66	-226.07	593.26	738.89	-244.37	726.25	587.21	156.9	804.09	656.45	155.57	664.17	336.13	90.875	631.1	256.44	77.861	869.15	725.18	-186.05	925.1	565.19	-153.74	947.77	668.56	-149.41	896.7	644.26	-171.87	969.64	434.35	-132.91	951.82	416.41	-1.5343	1043.5	366.03	-61.031	1082.8	199.98	-47.823	1044.6	273.87	-113.56	1060.7	281.45	-54.902	1067.3	75.445	-84.219	1076.2	100.45	-6.5159	1211.8	91.224	-23.076	1183.5	64.171	-94.546	1262.3	103.69	-53.298	826.12	1520.3	-88.337	836.59	1536.6	56.265	596.65	178.72	61.032	936.86	915.72	256.58	640.79	459.57	-3.0607	596.56	24.458	77.374	680.32	450.01	120.64	692.49	23.076	30.251	686.29	1041.6	-207.53	751.33	664.92	178.96	583.01	271	113.5	507.91	92.758	58.462	538.45	110.6	-16.174	639.24	33.491	-4.1339	594.6	810.23	-207.36	837.14	1008.6	253.1	706.4	948.02	-58.298	701.47	947.35	44.03	777.87	744.32	203.14	790.16	1405.6	-7.903	1027.9	28.07	-37.394	708.92	1193.3	-0.18553	707.94	1281.6	69.757	798.79	998.98	184.73	456.84	82.077	11.153	685.34	1028.1	-134.03
368	1.84	990.36	1539.3	-73.071	994.84	1547.4	25.971	906	1296.4	-6.5946	925.61	1163.6	-1.183	895.28	885.67	-114.4	875.83	911.18	133.46	832.79	1342.1	158.14	838.96	1174.4	215.6	1002.9	811.62	246.42	1042.4	847.45	203.55	1072.7	783.06	246.72	821.33	1350.5	-156.3	759	1186.3	-209.33	654.34	913.33	-229.7	660.87	786	-225.96	596.41	739.6	-243.29	732.4	587.02	156.97	810.63	655.85	155.88	668.25	336.03	91.182	634.19	256.78	78.251	878.12	724.35	-186.16	933.22	564.09	-153.59	956.19	667.37	-148.79	905.25	643.28	-171.91	977.11	433.06	-132.56	957.81	414.91	-1.4256	1052.3	365.83	-60.128	1094.2	200.28	-46.724	1055	273.58	-112.59	1070.8	281.47	-53.918	1080.6	75.559	-83.072	1089	100.75	-5.3697	1224.8	93.222	-21.483	1197.1	65.492	-92.942	1275.3	106.35	-51.397	833.63	1519.5	-88.133	844.23	1535.8	56.458	598.81	179.43	61.495	945.57	915.47	256.45	646.85	459.63	-3.1035	596.69	24.513	77.406	685.81	450.05	120.78	692.49	23.101	30.202	692.03	1041.6	-206.91	757.85	664.62	179.03	586.23	271.97	113.76	509	94.585	58.903	539.91	111.9	-15.704	639.35	33.461	-4.0775	598.86	810.97	-206.35	845.27	1007.8	253.07	715	947.08	-59.094	709.69	946.47	43.397	784.77	743.93	203.16	797.94	1404.6	-7.8482	1041.7	27.552	-36.194	717.04	1192.2	-0.27623	715.86	1280.5	69.714	806.9	998.06	184.62	457.77	84.612	11.746	691.67	1028.1	-133.42
369	1.845	997.89	1538.5	-73.018	1002.4	1546.7	26.021	913.94	1295.6	-6.56	933.81	1162.9	-1.1492	904.3	884.98	-114.17	883.72	910.13	133.54	840.51	1341.2	158.14	846.9	1173.5	215.57	1012.2	811.69	246.14	1051.5	847.95	203.56	1082.2	783.66	246.66	829.11	1349.6	-156.29	765.67	1186.1	-209.24	659.24	913.73	-229.24	664.98	786.32	-225.92	599.89	740.22	-242.27	738.77	586.78	157.06	817.36	655.22	156.15	672.5	335.9	91.521	637.44	257.12	78.678	887.19	723.59	-186.22	941.46	563.09	-153.31	964.72	666.31	-148.12	913.9	642.4	-171.85	984.73	431.91	-132.02	964.05	413.64	-1.1105	1061	365.51	-59.198	1104.9	200.41	-45.56	1064.8	273.19	-111.58	1080.5	281.35	-52.886	1092.8	75.534	-81.816	1100.8	100.9	-4.1255	1236.8	94.669	-19.818	1209.7	66.394	-91.273	1287.3	108.34	-49.449	841.16	1518.7	-87.961	851.87	1535	56.624	601.09	180.16	62.014	954.15	915.16	256.35	653.09	459.6	-3.0826	596.85	24.569	77.46	691.55	450.04	120.96	692.47	23.13	30.141	697.94	1041.6	-206.39	764.55	664.27	179.08	589.63	272.95	114.07	510.19	96.481	59.427	541.45	113.25	-15.16	639.45	33.429	-4.0155	603.37	811.64	-205.47	853.36	1006.9	253	723.64	946.18	-59.854	717.98	945.62	42.8	791.85	743.52	203.16	805.73	1403.7	-7.8418	1054.3	27.115	-34.943	725.19	1191.1	-0.38769	723.81	1279.4	69.627	814.99	997.13	184.46	458.79	87.271	12.426	698.09	1028	-132.93
